# xmcd
#
# Track frame offsets: 
#        150
#        20348
#        46663
#        64601
#        83523
#        115000
#        134202
#        171435
#        184676
#        206483
#        241426
#        265132
#        286636
#        319498
#
# Disc length: 4657 seconds
#
# Revision: 0
# Processed by: cddbd v1.5.2PL0 Copyright (c) Steve Scherf et al.
# Submitted via: ExactAudioCopyFreeDBPlugin 1.0
#
DISCID=c1122f0e
DTITLE=Johnny Winter - Live from Japan
DYEAR=2011
DGENRE=Rock
TTITLE0=Hideaway
TTITLE1=Sugar Coated Love
TTITLE2=She Like to Boogie Real Low
TTITLE3=Good Morning Little School Girl
TTITLE4=Got My Mojo Workin'
TTITLE5=Johnny B Goode
TTITLE6=BlackJack
TTITLE7=All Tore Down
TTITLE8=Lone Wolf
TTITLE9=Dont take Advantage of Me
TTITLE10=Bony Marony
TTITLE11=It's All Over Now
TTITLE12=Dust My Broom
TTITLE13=Highway 61 Revisited
EXTD=
EXTT0=
EXTT1=
EXTT2=
EXTT3=
EXTT4=
EXTT5=
EXTT6=
EXTT7=
EXTT8=
EXTT9=
EXTT10=
EXTT11=
EXTT12=
EXTT13=
PLAYORDER=
